#!OML:ASF H:\GeneralSubjects\Female5\Project 1\Capture day 1\Session 1\Female5.ASF
:FULLY-SPECIFIED
:DEGREES
226
root 16.0347 15.3276 3.30327 -528.403 31.733 -530.665
lowerback 11.6244 1.58122 6.37535
upperback -11.6219 4.71274 1.88952
thorax -19.9367 1.71612 -2.77366
lowerneck -12.0596 -8.55235 -6.23017
upperneck 41.9173 -6.73016 -1.62409
head 17.7644 -2.52143 -0.415235
rclavicle -3.16565e-014 -4.07509e-015
rhumerus -46.913 26.1463 -86.5758
rradius 41.4704
rwrist -11.6859
rhand -26.02 -17.941
rfingers 7.12502
rthumb 0.52646 -47.9201
lclavicle -3.16565e-014 -4.07509e-015
lhumerus -61.2914 4.72728 68.0168
lradius 28.4413
lwrist -4.14197
lhand -15.6289 28.3711
lfingers 7.12502
lthumb 10.5582 58.0859
rfemur 15.0003 6.58006 39.9388
rtibia 16.2017
rfoot -9.09135 -12.7745
rtoes -25.97
lfemur -37.4002 -20.5932 -8.32212
ltibia 20.2166
lfoot -13.9908 8.34713
ltoes -42.678
227
root 16.2129 15.3402 2.9768 -529.423 31.5338 -532.139
lowerback 11.3883 1.5675 5.76461
upperback -11.673 4.41937 1.2805
thorax -19.8318 1.60014 -3.05592
lowerneck -11.8413 -8.81167 -6.11202
upperneck 42.0009 -7.26722 -1.41507
head 17.7718 -2.67902 -0.428719
rclavicle -4.18939e-014 -3.37934e-015
rhumerus -48.3142 24.9155 -87.4191
rradius 41.4719
rwrist -11.0149
rhand -25.5482 -17.8858
rfingers 7.12502
rthumb 0.982152 -47.8633
lclavicle -4.18939e-014 -3.37934e-015
lhumerus -60.7639 4.55006 67.2352
lradius 27.9079
lwrist -5.2794
lhand -18.2807 29.6891
lfingers 7.12502
lthumb 7.99941 59.5177
rfemur 14.0925 4.32949 37.5727
rtibia 19.9391
rfoot -5.4877 -12.7393
rtoes -22.7544
lfemur -36.0955 -19.4237 -11.5059
ltibia 21.5528
lfoot -12.1747 6.57297
ltoes -37.5114
228
root 16.3906 15.3669 2.66783 -530.684 31.2424 -533.502
lowerback 11.601 1.47689 4.90378
upperback -11.6092 4.03424 0.949845
thorax -19.9348 1.49596 -2.86866
lowerneck -11.6352 -9.06364 -6.11325
upperneck 42.093 -7.6265 -1.4945
head 17.7769 -2.82534 -0.522712
rclavicle -9.74045e-015 2.34566e-014
rhumerus -49.7856 24.2006 -88.1208
rradius 41.4318
rwrist -10.6673
rhand -25.3351 -17.7916
rfingers 7.12502
rthumb 1.18789 -47.7681
lclavicle -9.74045e-015 2.34566e-014
lhumerus -60.297 4.56722 66.9001
lradius 27.5394
lwrist -6.19304
lhand -20.8657 30.9811
lfingers 7.12502
lthumb 5.50405 60.8896
rfemur 13.1156 1.8407 35.2721
rtibia 24.2179
rfoot -0.946652 -13.8506
rtoes -21.0547
lfemur -34.023 -18.7157 -14.3081
ltibia 22.0989
lfoot -10.9396 4.65381
ltoes -34.0709
229
root 16.5566 15.4031 2.3714 -531.986 30.8673 -534.921
lowerback 11.9538 1.37531 4.1807
upperback -11.5103 3.64003 0.510505
thorax -20.0707 1.35241 -2.88587
lowerneck -11.4212 -9.35678 -6.42679
upperneck 42.2122 -8.10678 -1.20705
head 17.8526 -3.01775 -0.419108
rclavicle -1.55052e-014 1.2921e-014
rhumerus -51.1588 23.3792 -88.8258
rradius 41.3265
rwrist -10.7082
rhand -25.334 -17.9319
rfingers 7.12502
rthumb 1.18901 -47.9084
lclavicle -1.55052e-014 1.2921e-014
lhumerus -59.7159 4.09497 67.0846
lradius 27.5163
lwrist -6.14042
lhand -21.8458 31.5721
lfingers 7.12502
lthumb 4.55765 61.5031
rfemur 11.9319 -0.625411 32.9053
rtibia 28.7795
rfoot 2.95112 -15.6925
rtoes -16.3269
lfemur -31.7447 -18.1934 -17.0364
ltibia 22.1467
lfoot -10.0016 2.93636
ltoes -31.6143
230
root 16.7109 15.4391 2.09002 -533.106 30.6477 -536.145
lowerback 12.4032 1.33186 3.82646
upperback -11.4297 3.39773 -0.0169935
thorax -20.267 1.21293 -3.26054
lowerneck -11.2007 -9.66829 -6.89673
upperneck 42.288 -8.72251 -0.591511
head 17.9506 -3.24783 -0.164151
rclavicle -3.82164e-014 3.97569e-016
rhumerus -52.3223 22.2366 -89.4669
rradius 41.0531
rwrist -10.7499
rhand -25.0186 -18.1774
rfingers 7.12502
rthumb 1.49358 -48.152
lclavicle -3.82164e-014 3.97569e-016
lhumerus -59.0302 3.52528 67.1424
lradius 27.6983
lwrist -6.30205
lhand -22.5501 31.7412
lfingers 7.12502
lthumb 3.87752 61.6857
rfemur 10.3842 -2.89154 30.7438
rtibia 33.422
rfoot 5.78536 -17.9549
rtoes -10.846
lfemur -29.3746 -17.7997 -19.3347
ltibia 21.687
lfoot -9.45258 1.62493
ltoes -28.6202
231
root 16.8661 15.4761 1.82758 -534.105 30.6893 -537.127
lowerback 12.8712 1.3185 3.37245
upperback -11.2606 3.20235 -0.297207
thorax -20.3766 1.13856 -3.29606
lowerneck -11.0156 -9.82222 -6.82264
upperneck 42.1021 -9.05949 -0.554952
head 17.7999 -3.38658 -0.215556
rclavicle -2.97183e-014 -7.15625e-015
rhumerus -53.1831 21.4237 -89.8627
rradius 40.6449
rwrist -10.7377
rhand -24.4146 -18.2616
rfingers 7.12502
rthumb 2.07692 -48.2312
lclavicle -2.97183e-014 -7.15625e-015
lhumerus -58.1002 2.86242 67.6167
lradius 27.8302
lwrist -6.33573
lhand -23.8575 32.105
lfingers 7.12502
lthumb 2.61502 62.0687
rfemur 8.6303 -4.72712 29.0885
rtibia 37.861
rfoot 7.38862 -20.8776
rtoes -6.56342
lfemur -26.8522 -17.5844 -21.0672
ltibia 20.8785
lfoot -9.39693 0.375861
ltoes -25.4532
232
root 17.0233 15.5145 1.58262 -534.996 30.9863 -538.004
lowerback 13.4219 1.34782 3.00228
upperback -11.0993 3.07784 -0.620788
thorax -20.544 1.07624 -3.45517
lowerneck -10.896 -9.87648 -5.56527
upperneck 41.819 -9.24936 -1.38206
head 17.4197 -3.41241 -0.823835
rclavicle 2.44008e-014 1.15295e-014
rhumerus -53.9095 20.4987 -90.2614
rradius 40.1957
rwrist -10.4929
rhand -23.7423 -18.3667
rfingers 7.12502
rthumb 2.72627 -48.329
lclavicle 2.44008e-014 1.15295e-014
lhumerus -57.0368 1.70003 68.277
lradius 28.159
lwrist -5.99143
lhand -17.7487 30.3739
lfingers 7.12502
lthumb 8.51289 60.1824
rfemur 6.68477 -6.20677 27.8614
rtibia 41.9214
rfoot 7.79061 -24.3721
rtoes 1.33944
lfemur -24.5152 -17.6283 -22.4202
ltibia 20.2641
lfoot -9.79387 -0.976521
ltoes -22.6754
233
root 17.1819 15.5502 1.35272 -535.716 31.5857 -538.909
lowerback 13.8431 1.42834 2.51039
upperback -10.9582 2.98766 -0.983868
thorax -20.6493 1.04787 -3.598
lowerneck -10.7503 -9.96581 -6.41273
upperneck 41.7396 -9.63832 -0.26787
head 17.522 -3.56011 -0.2493
rclavicle 2.75814e-014 1.5704e-014
rhumerus -54.3801 19.5639 -90.6751
rradius 39.6552
rwrist -10.11
rhand -23.0696 -18.5686
rfingers 7.12502
rthumb 3.37585 -48.5216
lclavicle 2.75814e-014 1.5704e-014
lhumerus -56.0133 1.08864 68.3581
lradius 28.8522
lwrist -6.35244
lhand -19.7216 31.0022
lfingers 7.12502
lthumb 6.60861 60.8791
rfemur 4.33683 -7.35348 26.8611
rtibia 45.4992
rfoot 1.29496 -27.6968
rtoes 1.99114
lfemur -22.5817 -17.5298 -23.6864
ltibia 19.8718
lfoot -10.4631 -2.1729
ltoes -20.1634
234
root 17.3126 15.5827 1.1267 -536.099 32.4297 -539.798
lowerback 14.033 1.54859 2.21748
upperback -10.8923 3.01648 -1.3087
thorax -20.682 1.05727 -3.83622
lowerneck -10.6545 -10.0162 -6.32821
upperneck 41.4886 -9.92058 -0.00343533
head 17.3767 -3.65643 -0.193707
rclavicle 3.25013e-014 2.14687e-014
rhumerus -54.7205 19.0018 -90.9985
rradius 39.0514
rwrist -10.0845
rhand -22.8557 -18.7085
rfingers 7.12502
rthumb 3.5825 -48.6581
lclavicle 3.25013e-014 2.14687e-014
lhumerus -54.9746 1.11765 68.1078
lradius 29.569
lwrist -7.35384
lhand -15.7051 28.5954
lfingers 7.12502
lthumb 10.4846 58.3139
rfemur 1.35199 -8.29844 25.9565
rtibia 48.5089
rfoot -6.50012 -29.3361
rtoes 9.48957
lfemur -21.0802 -17.2671 -24.9482
ltibia 19.4548
lfoot -11.0515 -3.29098
ltoes -17.9657
